HIERARCHY
ROOT Hips
{
	OFFSET 0.000000 71.427986 0.000000
	CHANNELS 6 Xposition Yposition Zposition Xrotation Yrotation Zrotation
	JOINT Pelvis
	{
		OFFSET 0.000000 0.000000 0.000000
		CHANNELS 3 Xrotation Yrotation Zrotation
		JOINT LeftUpLeg
		{
			OFFSET 6.797100 -2.508499 -1.318700
			CHANNELS 3 Xrotation Yrotation Zrotation
			JOINT LeftLeg
			{
				OFFSET 0.069008 -29.241863 0.690200
				CHANNELS 3 Xrotation Yrotation Zrotation
				JOINT LeftFoot
				{
					OFFSET -0.069008 -29.568123 -0.266800
					CHANNELS 3 Xrotation Yrotation Zrotation
					JOINT LeftToeBase
					{
						OFFSET 3.145500 -8.631000 16.059900
						CHANNELS 3 Xrotation Yrotation Zrotation
						End Site
						{
							OFFSET 0.000000 18.501587 0.000000
						}
					}
				}
			}
			JOINT Left_ShortSleeve
			{
				OFFSET 0.265923 -10.480953 1.153800
				CHANNELS 3 Xrotation Yrotation Zrotation
				End Site
				{
					OFFSET 1.725763 19.823879 0.000000
				}
			}
		}
		JOINT RightUpLeg
		{
			OFFSET -6.797100 -2.508499 -1.318700
			CHANNELS 3 Xrotation Yrotation Zrotation
			JOINT RightLeg
			{
				OFFSET -0.082453 -29.241932 0.688000
				CHANNELS 3 Xrotation Yrotation Zrotation
				JOINT RightFoot
				{
					OFFSET 0.082453 -29.568058 -0.264600
					CHANNELS 3 Xrotation Yrotation Zrotation
					JOINT RightToeBase
					{
						OFFSET -3.115300 -8.682800 16.113400
						CHANNELS 3 Xrotation Yrotation Zrotation
						End Site
						{
							OFFSET 0.000000 18.567114 0.000000
						}
					}
				}
			}
			JOINT Right_ShortSleeve
			{
				OFFSET -0.265923 -10.480953 1.153800
				CHANNELS 3 Xrotation Yrotation Zrotation
				End Site
				{
					OFFSET -1.725766 19.823910 0.000000
				}
			}
		}
	}
	JOINT Spine
	{
		OFFSET 0.000000 13.368103 0.470500
		CHANNELS 3 Xrotation Yrotation Zrotation
		JOINT Spine1
		{
			OFFSET 0.147000 13.837402 0.538800
			CHANNELS 3 Xrotation Yrotation Zrotation
			JOINT Spine2
			{
				OFFSET 0.168000 16.242897 -1.435500
				CHANNELS 3 Xrotation Yrotation Zrotation
				JOINT Neck
				{
					OFFSET 0.217200 18.631500 -1.679100
					CHANNELS 3 Xrotation Yrotation Zrotation
					JOINT Head
					{
						OFFSET 0.000000 6.599396 1.385900
						CHANNELS 3 Xrotation Yrotation Zrotation
						JOINT Hat
						{
							OFFSET -0.532200 27.220596 -10.096100
							CHANNELS 3 Xrotation Yrotation Zrotation
							End Site
							{
								OFFSET 0.000000 22.029861 0.000000
							}
						}
						JOINT HairD
						{
							OFFSET -10.777400 17.437393 -1.325900
							CHANNELS 3 Xrotation Yrotation Zrotation
							JOINT HairD1
							{
								OFFSET -3.290299 -11.051193 1.062200
								CHANNELS 3 Xrotation Yrotation Zrotation
								End Site
								{
									OFFSET 0.000000 11.579437 0.000000
								}
							}
						}
						JOINT HairB
						{
							OFFSET -10.777400 17.437393 1.467900
							CHANNELS 3 Xrotation Yrotation Zrotation
							JOINT HairB1
							{
								OFFSET -1.561200 -12.956299 3.590200
								CHANNELS 3 Xrotation Yrotation Zrotation
								End Site
								{
									OFFSET 0.000000 13.534866 0.000000
								}
							}
						}
						JOINT HairA
						{
							OFFSET 9.713100 17.437393 1.467900
							CHANNELS 3 Xrotation Yrotation Zrotation
							JOINT HairA1
							{
								OFFSET 1.561200 -12.956299 3.590200
								CHANNELS 3 Xrotation Yrotation Zrotation
								End Site
								{
									OFFSET 0.000000 13.534866 0.000000
								}
							}
						}
						JOINT HairC
						{
							OFFSET 9.713100 17.437393 -1.325900
							CHANNELS 3 Xrotation Yrotation Zrotation
							JOINT HairC1
							{
								OFFSET 3.290300 -11.051193 1.062200
								CHANNELS 3 Xrotation Yrotation Zrotation
								End Site
								{
									OFFSET 0.000000 11.579437 0.000000
								}
							}
						}
					}
				}
				JOINT LeftShoulder
				{
					OFFSET 5.101800 15.108002 -2.763700
					CHANNELS 3 Xrotation Yrotation Zrotation
					JOINT LeftArm
					{
						OFFSET 9.825497 2.506317 -1.597400
						CHANNELS 3 Xrotation Yrotation Zrotation
						JOINT LeftForeArm
						{
							OFFSET 21.966244 0.000000 0.000000
							CHANNELS 3 Xrotation Yrotation Zrotation
							JOINT LeftHand
							{
								OFFSET 33.879036 0.000000 0.000000
								CHANNELS 3 Xrotation Yrotation Zrotation
								JOINT LeftHandThumb1
								{
									OFFSET 6.715286 -2.359680 3.363841
									CHANNELS 3 Xrotation Yrotation Zrotation
									JOINT LeftHandThumb2
									{
										OFFSET 2.507072 -1.447464 1.447461
										CHANNELS 3 Xrotation Yrotation Zrotation
										JOINT LeftHandThumb3
										{
											OFFSET 2.898338 -1.673355 1.673357
											CHANNELS 3 Xrotation Yrotation Zrotation
											End Site
											{
												OFFSET -0.295959 3.727692 -0.131651
											}
										}
									}
								}
								JOINT LeftHandIndex1
								{
									OFFSET 14.190811 -0.254547 3.840278
									CHANNELS 3 Xrotation Yrotation Zrotation
									JOINT LeftHandIndex2
									{
										OFFSET 3.551727 0.000000 -0.000000
										CHANNELS 3 Xrotation Yrotation Zrotation
										JOINT LeftHandIndex3
										{
											OFFSET 2.894196 0.000000 0.000000
											CHANNELS 3 Xrotation Yrotation Zrotation
											End Site
											{
												OFFSET -1.000603 2.690872 0.366626
											}
										}
									}
								}
								JOINT LeftHandMiddle1
								{
									OFFSET 13.776489 0.000000 0.000000
									CHANNELS 3 Xrotation Yrotation Zrotation
									JOINT LeftHandMiddle2
									{
										OFFSET 3.438232 0.000000 0.000000
										CHANNELS 3 Xrotation Yrotation Zrotation
										JOINT LeftHandMiddle3
										{
											OFFSET 3.691551 0.000000 0.000000
											CHANNELS 3 Xrotation Yrotation Zrotation
											End Site
											{
												OFFSET -1.082298 3.499527 0.457670
											}
										}
									}
								}
								JOINT LeftHandRing1
								{
									OFFSET 13.966164 -0.268127 -3.067488
									CHANNELS 3 Xrotation Yrotation Zrotation
									JOINT LeftHandRing2
									{
										OFFSET 3.162567 0.000000 0.000000
										CHANNELS 3 Xrotation Yrotation Zrotation
										JOINT LeftHandRing3
										{
											OFFSET 3.324348 0.000000 0.000000
											CHANNELS 3 Xrotation Yrotation Zrotation
											End Site
											{
												OFFSET -0.861900 3.184998 0.405154
											}
										}
									}
								}
								JOINT LeftHandPinky1
								{
									OFFSET 13.131393 -0.168503 -5.746925
									CHANNELS 3 Xrotation Yrotation Zrotation
									JOINT LeftHandPinky2
									{
										OFFSET 2.849182 0.000000 0.000000
										CHANNELS 3 Xrotation Yrotation Zrotation
										JOINT LeftHandPinky3
										{
											OFFSET 2.805038 0.000000 0.000000
											CHANNELS 3 Xrotation Yrotation Zrotation
											End Site
											{
												OFFSET -0.882500 2.642609 0.325652
											}
										}
									}
								}
							}
							JOINT Left_Sleeve
							{
								OFFSET 6.592125 -0.646545 0.805568
								CHANNELS 3 Xrotation Yrotation Zrotation
								End Site
								{
									OFFSET -0.000179 20.275787 -0.000000
								}
							}
						}
					}
				}
				JOINT RightShoulder
				{
					OFFSET -5.731700 15.108002 -2.763700
					CHANNELS 3 Xrotation Yrotation Zrotation
					JOINT RightArm
					{
						OFFSET -9.825497 2.506317 -1.597400
						CHANNELS 3 Xrotation Yrotation Zrotation
						JOINT RightForeArm
						{
							OFFSET -21.966242 0.000000 0.000000
							CHANNELS 3 Xrotation Yrotation Zrotation
							JOINT RightHand
							{
								OFFSET -33.879032 0.000000 0.000000
								CHANNELS 3 Xrotation Yrotation Zrotation
								JOINT RightHandThumb1
								{
									OFFSET -6.715286 -2.359680 3.363841
									CHANNELS 3 Xrotation Yrotation Zrotation
									JOINT RightHandThumb2
									{
										OFFSET -2.507072 -1.447464 1.447461
										CHANNELS 3 Xrotation Yrotation Zrotation
										JOINT RightHandThumb3
										{
											OFFSET -2.898338 -1.673355 1.673357
											CHANNELS 3 Xrotation Yrotation Zrotation
											End Site
											{
												OFFSET 0.295959 3.727692 -0.131651
											}
										}
									}
								}
								JOINT RightHandIndex1
								{
									OFFSET -14.190811 -0.254547 3.840278
									CHANNELS 3 Xrotation Yrotation Zrotation
									JOINT RightHandIndex2
									{
										OFFSET -3.551727 0.000000 -0.000000
										CHANNELS 3 Xrotation Yrotation Zrotation
										JOINT RightHandIndex3
										{
											OFFSET -2.894196 0.000000 0.000000
											CHANNELS 3 Xrotation Yrotation Zrotation
											End Site
											{
												OFFSET 1.000603 2.690872 0.366626
											}
										}
									}
								}
								JOINT RightHandMiddle1
								{
									OFFSET -13.776489 0.000000 0.000000
									CHANNELS 3 Xrotation Yrotation Zrotation
									JOINT RightHandMiddle2
									{
										OFFSET -3.438232 0.000000 0.000000
										CHANNELS 3 Xrotation Yrotation Zrotation
										JOINT RightHandMiddle3
										{
											OFFSET -3.691551 0.000000 0.000000
											CHANNELS 3 Xrotation Yrotation Zrotation
											End Site
											{
												OFFSET 1.082298 3.499527 0.457670
											}
										}
									}
								}
								JOINT RightHandRing1
								{
									OFFSET -13.966164 -0.268127 -3.067488
									CHANNELS 3 Xrotation Yrotation Zrotation
									JOINT RightHandRing2
									{
										OFFSET -3.162567 0.000000 0.000000
										CHANNELS 3 Xrotation Yrotation Zrotation
										JOINT RightHandRing3
										{
											OFFSET -3.324348 0.000000 0.000000
											CHANNELS 3 Xrotation Yrotation Zrotation
											End Site
											{
												OFFSET 0.861900 3.184998 0.405154
											}
										}
									}
								}
								JOINT RightHandPinky1
								{
									OFFSET -13.131393 -0.168503 -5.746925
									CHANNELS 3 Xrotation Yrotation Zrotation
									JOINT RightHandPinky2
									{
										OFFSET -2.849182 0.000000 0.000000
										CHANNELS 3 Xrotation Yrotation Zrotation
										JOINT RightHandPinky3
										{
											OFFSET -2.805038 0.000000 0.000000
											CHANNELS 3 Xrotation Yrotation Zrotation
											End Site
											{
												OFFSET 0.882500 2.642609 0.325652
											}
										}
									}
								}
							}
							JOINT Right_Sleeve
							{
								OFFSET -6.592125 -0.646545 0.805568
								CHANNELS 3 Xrotation Yrotation Zrotation
								End Site
								{
									OFFSET 0.000179 20.275787 -0.000000
								}
							}
						}
					}
				}
				JOINT Bind_Right_JacketString
				{
					OFFSET -3.534800 11.969597 7.200700
					CHANNELS 3 Xrotation Yrotation Zrotation
					JOINT Bind_Right_JacketString1
					{
						OFFSET -0.319900 -6.102600 2.794100
						CHANNELS 3 Xrotation Yrotation Zrotation
						End Site
						{
							OFFSET 0.000000 6.719452 0.000000
						}
					}
				}
				JOINT Bind_Left_JacketString
				{
					OFFSET 2.904800 11.969597 7.200700
					CHANNELS 3 Xrotation Yrotation Zrotation
					JOINT Bind_Left_JacketString1
					{
						OFFSET 0.364800 -5.904503 3.186800
						CHANNELS 3 Xrotation Yrotation Zrotation
						End Site
						{
							OFFSET 0.000000 6.719513 0.000000
						}
					}
				}
				JOINT HairE
				{
					OFFSET 5.915200 17.612701 -11.592200
					CHANNELS 3 Xrotation Yrotation Zrotation
					JOINT HairE1
					{
						OFFSET 0.289200 -7.171898 -1.284500
						CHANNELS 3 Xrotation Yrotation Zrotation
						End Site
						{
							OFFSET 0.000000 7.291756 0.000000
						}
					}
				}
				JOINT HairF
				{
					OFFSET -0.864800 17.612701 -11.592200
					CHANNELS 3 Xrotation Yrotation Zrotation
					JOINT HairF1
					{
						OFFSET 0.000000 -14.087097 -2.127501
						CHANNELS 3 Xrotation Yrotation Zrotation
						End Site
						{
							OFFSET 0.000000 14.246841 0.000000
						}
					}
				}
				JOINT HairG
				{
					OFFSET -8.087700 17.612701 -11.592200
					CHANNELS 3 Xrotation Yrotation Zrotation
					JOINT HairG1
					{
						OFFSET -0.293600 -6.081398 -0.910100
						CHANNELS 3 Xrotation Yrotation Zrotation
						End Site
						{
							OFFSET 0.000000 6.156120 0.000000
						}
					}
				}
			}
		}
	}
	JOINT Pouch
	{
		OFFSET 0.000000 4.394501 10.847300
		CHANNELS 3 Xrotation Yrotation Zrotation
		End Site
		{
			OFFSET 0.000000 21.880577 0.000000
		}
	}
	JOINT Bag
	{
		OFFSET -13.229000 4.813004 -0.593300
		CHANNELS 3 Xrotation Yrotation Zrotation
		End Site
		{
			OFFSET 0.000000 21.880577 0.000000
		}
	}
	JOINT OccupyGuyFacialAnim_Joint
	{
		OFFSET 1.000000 -70.206398 -1.655000
		CHANNELS 3 Xrotation Yrotation Zrotation
		End Site
		{
			OFFSET 0.000000 21.880577 0.000000
		}
	}
}
MOTION
Frames: 4
Frame Time: 0.033333
-0.264425 72.268066 0.409480 -3.422941 3.900914 -3.328698 0.000000 -0.000000 -0.000000 -25.716075 -10.409030 0.032704 58.919199 0.840461 -0.101208 4.032507 1.872338 9.040198 0.000001 -0.000000 0.000000 -0.000001 0.000000 -0.000000 -13.170360 -10.454146 7.418031 38.396912 -0.907031 0.139228 0.147807 0.423324 -7.098410 0.000002 0.000000 -0.000000 -0.000001 0.000000 0.000000 7.483732 -0.365866 -0.643534 -2.114713 -0.634069 1.955413 -2.107416 -0.526124 1.991271 -6.842895 -2.682120 0.508897 2.526717 0.704224 0.466794 -0.000000 0.000000 -0.000000 -0.000000 0.000000 -0.000000 -0.000000 0.000000 -0.000000 -0.000000 0.000000 -0.000000 -0.000000 0.000000 -0.000000 -0.000000 0.000000 -0.000000 -0.000000 0.000000 -0.000000 -0.000000 0.000000 -0.000000 -0.000000 0.000000 -0.000000 1.091374 1.577353 -3.543030 -1.207975 1.492930 -78.012686 20.698688 -13.799217 -0.079269 -0.026787 -3.262860 -0.409737 10.566377 -2.874503 25.089250 -5.467493 26.113842 -7.056914 -0.000001 -0.000000 -0.000001 2.368138 3.636443 -10.145172 -2.149014 2.450722 -20.340245 0.000003 0.000000 -0.000000 -1.985339 5.666905 -18.667832 0.274916 5.080188 -32.023294 0.000002 0.000000 0.000001 -4.971336 10.112444 -16.316236 4.014086 4.063003 -38.804470 -0.000000 0.000000 -0.000002 -6.467768 11.324853 -26.085286 10.728404 2.572884 -37.641897 -0.000002 -0.000001 0.000001 -0.000000 0.000000 -0.000000 0.479130 5.314191 4.320676 -7.274271 4.805424 74.559233 13.988537 13.383106 -4.467035 0.106857 3.530046 -2.699138 15.558061 -0.731703 -16.759421 -6.578856 -24.369719 7.035399 0.000001 0.000000 0.000006 2.258483 -2.296569 4.748006 -2.157260 -2.451096 14.947736 0.000001 0.000001 0.000002 -1.986980 -5.675198 8.743327 0.271435 -5.090047 22.100021 -0.000003 0.000001 0.000001 -4.989729 -10.118006 7.759607 4.012077 -4.036037 30.251058 0.000000 0.000000 -0.000001 -6.474055 -11.322726 16.980569 10.710239 -2.549652 28.535589 0.000001 0.000000 0.000004 0.000001 -0.000001 0.000001 -0.000000 -0.000000 0.000000 -0.000000 -0.000000 0.000000 -0.000000 -0.000000 0.000000 -0.000000 -0.000000 0.000000 -0.000000 -0.000000 0.000000 -0.000000 -0.000000 -0.000000 -0.000000 -0.000000 0.000000 -0.000000 -0.000000 0.000000 -0.000000 -0.000000 0.000000 -0.000000 -0.000000 -0.000000 0.000000 -0.000000 -0.000000 0.000000 -0.000000 -0.000000 0.000000 -0.000000 -0.000000 
0.049914 72.687408 2.101518 -3.670409 2.632824 -1.972814 -0.000001 0.000000 -0.000000 -26.278244 -9.621663 -1.204932 50.675906 2.091110 0.020905 5.205585 2.546577 7.263592 0.000000 -0.000001 0.000000 -0.000001 0.000001 -0.000000 -10.813554 -9.723958 5.847329 37.054777 0.098452 0.201970 -0.677845 0.455839 -7.014839 0.000000 -0.000000 -0.000000 -0.000001 0.000000 -0.000000 8.035386 -0.139026 -1.239369 -2.245388 -0.238011 1.573259 -2.239648 -0.160199 1.584238 -6.147995 -2.250358 -0.103257 2.287142 0.805411 0.735147 -0.000001 -0.000000 0.000000 -0.000001 -0.000000 0.000000 -0.000001 -0.000000 0.000000 -0.000001 -0.000000 -0.000000 -0.000000 -0.000000 0.000000 -0.000001 -0.000000 -0.000000 -0.000000 -0.000000 0.000000 -0.000001 -0.000000 0.000000 -0.000001 -0.000000 0.000000 1.126756 1.651406 -3.988503 -0.923893 1.825224 -77.677966 20.135451 -14.562921 0.237547 -0.027291 -3.369659 -0.475543 10.582363 -2.861862 25.059112 -5.500108 26.053564 -7.053502 -0.000000 0.000001 -0.000001 2.366103 3.616502 -10.125468 -2.149107 2.449515 -20.279421 0.000001 0.000000 0.000002 -1.989566 5.653046 -18.609914 0.273187 5.080017 -31.966460 0.000002 0.000001 0.000001 -4.971007 10.110781 -16.239029 4.014087 4.062180 -38.771128 -0.000001 -0.000000 -0.000000 -6.470755 11.323707 -25.978869 10.728071 2.572550 -37.620306 -0.000001 -0.000001 -0.000001 0.000000 -0.000001 0.000000 0.535207 6.049351 3.494687 -8.782415 5.884654 75.137975 12.567970 14.202619 -4.031684 0.190990 4.347132 -3.392303 15.530032 -0.711490 -16.809555 -6.788309 -24.022516 7.030305 0.000001 -0.000001 -0.000001 2.248139 -2.200809 4.778769 -2.157078 -2.446064 14.695937 0.000001 -0.000001 0.000002 -2.009945 -5.578433 8.650973 0.268958 -5.089349 22.016160 -0.000002 -0.000003 0.000000 -4.987833 -10.112524 7.494252 4.011956 -4.036871 30.286169 0.000001 -0.000000 0.000002 -6.468742 -11.312450 16.539021 10.712530 -2.564460 28.671444 0.000004 -0.000003 -0.000002 0.000001 0.000001 -0.000000 0.000000 -0.000000 -0.000000 -0.000000 0.000000 -0.000000 0.000000 -0.000000 -0.000000 0.000000 -0.000000 -0.000000 0.000000 -0.000000 -0.000000 -0.000000 0.000000 -0.000000 0.000000 -0.000000 -0.000000 0.000000 -0.000000 -0.000000 0.000000 -0.000000 -0.000000 -0.000000 0.000000 -0.000000 -0.000001 0.000000 -0.000000 -0.000001 0.000000 -0.000000 -0.000001 0.000000 -0.000000 
0.308195 72.807060 3.903266 -4.029047 1.232034 -1.001977 -0.000000 0.000000 0.000000 -26.035402 -6.823756 -1.379762 41.616373 1.368845 -0.059221 7.901697 3.178371 9.096087 -0.000001 0.000000 0.000001 -0.000000 -0.000000 -0.000000 -8.743723 -9.996259 4.278021 36.954359 1.551220 0.373017 -2.130456 0.534284 -7.246716 -0.000000 0.000000 -0.000000 0.000000 -0.000000 -0.000000 9.327081 0.145807 -1.388793 -2.710829 0.126506 1.153861 -2.704610 0.174637 1.131000 -5.597179 -1.865929 -0.765400 1.982592 0.882919 0.809353 -0.000000 -0.000000 -0.000000 -0.000000 -0.000000 -0.000000 -0.000000 -0.000000 -0.000000 -0.000000 -0.000000 0.000000 -0.000000 -0.000000 0.000000 -0.000000 -0.000000 0.000000 -0.000000 -0.000000 0.000000 -0.000000 -0.000000 -0.000000 -0.000000 -0.000000 -0.000000 1.155195 2.143500 -4.366286 -0.660857 1.801385 -77.264848 20.232101 -14.696392 0.379567 -0.009527 -3.933207 -0.318118 10.630273 -2.820421 24.971995 -5.602690 25.884035 -7.046821 -0.000001 0.000001 -0.000003 2.360180 3.558844 -10.068491 -2.149236 2.447482 -20.103417 0.000001 -0.000001 -0.000000 -2.005487 5.612932 -18.442052 0.268177 5.079548 -31.801849 -0.000000 0.000000 -0.000001 -4.970097 10.105990 -16.015706 4.014097 4.059830 -38.674611 0.000001 -0.000001 -0.000004 -6.465524 11.310477 -25.674775 10.729459 2.571494 -37.557892 -0.000002 0.000001 0.000001 0.000000 0.000000 0.000000 0.585536 6.655599 2.820964 -10.302422 7.699474 75.616710 8.943784 14.439788 -2.463579 0.450489 6.713476 -5.130342 15.454435 -0.656863 -16.944758 -7.353834 -23.087725 7.025235 0.000000 -0.000001 0.000000 2.220242 -1.942418 4.861858 -2.155872 -2.443806 14.015914 -0.000002 -0.000001 0.000002 -2.070299 -5.317044 8.402105 0.262291 -5.087515 21.789712 0.000002 0.000001 -0.000001 -4.982602 -10.097760 6.778564 4.011611 -4.039148 30.380835 -0.000000 0.000001 0.000000 -6.455187 -11.283924 15.348490 10.731150 -2.603945 29.038249 0.000003 0.000001 0.000002 0.000002 0.000001 -0.000001 -0.000000 0.000000 -0.000000 -0.000000 0.000000 -0.000000 -0.000000 0.000000 -0.000000 -0.000000 0.000000 -0.000000 -0.000000 0.000000 -0.000000 -0.000000 0.000000 -0.000000 -0.000000 0.000000 -0.000000 -0.000000 0.000000 -0.000000 -0.000000 0.000000 -0.000000 -0.000000 0.000000 -0.000000 -0.000000 0.000000 0.000000 -0.000000 0.000000 0.000000 -0.000000 0.000000 0.000000 
0.510913 72.636116 5.772769 -3.885639 -0.330250 -0.656872 0.000000 0.000000 -0.000000 -24.828173 -1.085481 -0.113533 30.199524 -1.899458 -0.297873 13.766142 3.373350 9.020501 -0.000000 -0.000000 -0.000001 -0.000000 0.000000 -0.000000 -7.281645 -11.079224 3.110959 37.587228 3.424335 0.603590 -4.378430 0.728205 -8.259726 -0.000001 -0.000000 -0.000000 -0.000000 -0.000001 0.000000 10.158991 0.595425 -0.778239 -3.171456 0.526857 0.606372 -3.154948 0.540777 0.542411 -5.294772 -1.609608 -1.251050 1.663872 0.940882 0.724778 -0.000000 0.000000 -0.000000 -0.000000 0.000000 -0.000000 -0.000000 0.000000 -0.000000 -0.000000 0.000000 -0.000000 0.000000 0.000000 -0.000000 -0.000000 0.000000 -0.000000 0.000000 0.000000 -0.000000 -0.000000 0.000000 -0.000000 -0.000000 0.000000 -0.000000 1.150181 2.654459 -4.415214 -0.471167 1.858037 -77.036187 21.034107 -14.224128 0.612922 -0.005492 -5.109980 -0.543597 10.716384 -2.757571 24.836660 -5.766616 25.613209 -7.037051 0.000001 0.000002 0.000002 2.343946 3.467358 -9.976946 -2.149327 2.446292 -19.821921 0.000002 0.000001 0.000000 -2.030478 5.548678 -18.173668 0.264356 5.078558 -31.539068 0.000002 0.000000 0.000004 -4.968322 10.098312 -15.658803 4.014144 4.056067 -38.520378 -0.000001 0.000000 -0.000002 -6.457274 11.290089 -25.188701 10.735054 2.580216 -37.459961 -0.000001 0.000001 0.000001 0.000001 0.000001 -0.000000 0.612626 7.010558 2.411028 -11.336021 9.195338 75.938344 7.024686 15.554853 -1.592790 0.770695 8.520578 -6.918722 15.344078 -0.576875 -17.142194 -8.182086 -21.727037 7.040526 -0.000003 0.000001 0.000002 2.179546 -1.564770 4.983601 -2.153780 -2.441163 13.022122 -0.000003 -0.000001 0.000000 -2.154364 -4.934254 8.039001 0.262113 -5.084313 21.459392 -0.000001 0.000001 0.000001 -4.974774 -10.085875 5.732102 4.011099 -4.042503 30.519249 -0.000001 0.000000 -0.000002 -6.438671 -11.252540 13.608644 10.760084 -2.661403 29.574251 0.000003 0.000001 0.000001 0.000003 -0.000001 0.000000 -0.000000 -0.000000 0.000000 -0.000000 -0.000000 0.000000 -0.000000 -0.000000 0.000000 -0.000000 -0.000000 0.000000 -0.000000 -0.000000 0.000000 -0.000000 -0.000000 0.000000 -0.000000 -0.000000 0.000000 -0.000000 -0.000000 0.000000 -0.000000 -0.000000 0.000000 -0.000000 -0.000000 0.000000 0.000000 0.000000 -0.000000 0.000000 0.000000 -0.000000 0.000000 0.000000 -0.000000 
